<svg width="512" height="512" xmlns="http://www.w3.org/2000/svg"><path fill="#A31034" d="M0 0h512v512H0z"/><path d="M80 114h352v285H80V114zm6 6v273h340V120H86z" fill="#FFF"/><path d="M212 178h-23.3l-17.2 150.2h-.4L154 178h-23.3l18.7 159.6h42.6L212 178zm46.8 28v28.2h-23.7V178h66.2v28h-42.5zm0 69v62.6h-23.7V260h45.1v-25.9l10.3 12.5V275h-31.7zm76.6 36.3c.7 14 3.9 22.7 8.6 26.3h-27.8c-2-6.7-3.2-14.2-3.4-22l22.5-4.3zm47.2 8.3c0 6.6-.8 12.6-2.2 18h-27c4-2.6 6.6-7.7 6.6-15.2 0-37-48.2-46.8-48.2-100.4 0-29.7 13.4-46.5 36.7-46.5 19.3 0 30.8 18.8 33 45.2l-22.7 3.4c-1-16-7.2-20.7-12.6-20.7-7.6 0-11.8 6.7-11.8 18.4 0 31.8 48.2 47 48.2 97.8z" fill="#FFF"/></svg>