<svg height="512" width="512" xmlns="http://www.w3.org/2000/svg"><path d="m0 0h512v512h-512z" fill="#a31034"/><g fill="#fff"><path d="m80 114h352v285h-352zm6 6v273h340v-273z"/><path d="m212 178h-23.3l-17.2 150.2h-.4l-17.1-150.2h-23.3l18.7 159.6h42.6zm46.8 28v28.2h-23.7v-56.2h66.2v28zm0 69v62.6h-23.7v-77.6h45.1v-25.9l10.3 12.5v28.4zm76.6 36.3c.7 14 3.9 22.7 8.6 26.3h-27.8c-2-6.7-3.2-14.2-3.4-22l22.5-4.3zm47.2 8.3c0 6.6-.8 12.6-2.2 18h-27c4-2.6 6.6-7.7 6.6-15.2 0-37-48.2-46.8-48.2-100.4 0-29.7 13.4-46.5 36.7-46.5 19.3 0 30.8 18.8 33 45.2l-22.7 3.4c-1-16-7.2-20.7-12.6-20.7-7.6 0-11.8 6.7-11.8 18.4 0 31.8 48.2 47 48.2 97.8z"/></g></svg>