<?xml version="1.0" standalone="no"?>
<!DOCTYPE svg PUBLIC "-//W3C//DTD SVG 20010904//EN"
 "http://www.w3.org/TR/2001/REC-SVG-20010904/DTD/svg10.dtd">
<svg version="1.0" xmlns="http://www.w3.org/2000/svg"
 width="16pt" height="16pt" viewBox="0 0 16 16"
 preserveAspectRatio="xMidYMid meet">
<metadata>
Created by potrace 1.11, written by Peter Selinger 2001-2013
</metadata>
<g transform="translate(0,16) scale(0.006154,-0.006154)"
fill="#000" stroke="none">
<path d="M1092 2592 c-5 -1 50 -166 123 -365 73 -199 196 -540 274 -757 79
-217 148 -408 155 -425 7 -16 95 -258 196 -537 l183 -508 250 0 c233 0 249 1
244 18 -6 22 -545 1460 -557 1487 -5 11 -98 256 -206 545 -108 289 -199 530
-202 535 -6 9 -434 16 -460 7z"/>
<path d="M862 2053 c-5 -10 -19 -45 -30 -78 -12 -33 -87 -231 -167 -440 -81
-209 -148 -384 -149 -390 -2 -5 -6 -17 -9 -25 -6 -13 -335 -878 -403 -1057
l-23 -63 403 0 403 0 47 178 c26 97 53 197 60 222 8 25 28 101 46 170 18 69
38 128 44 132 6 4 36 7 66 7 30 -1 92 -1 136 0 l82 1 -25 68 c-48 129 -105
288 -132 367 -16 44 -85 235 -154 425 -68 190 -137 380 -152 423 -15 42 -29
77 -31 77 -2 0 -7 -8 -12 -17z"/>
</g>
</svg>
