<svg height="16pt" preserveAspectRatio="xMidYMid meet" viewBox="0 0 16 16" width="16pt" xmlns="http://www.w3.org/2000/svg"><g transform="matrix(.006154 0 0 -.006154 0 16)"><path d="m1092 2592c-5-1 50-166 123-365s196-540 274-757c79-217 148-408 155-425 7-16 95-258 196-537l183-508h250c233 0 249 1 244 18-6 22-545 1460-557 1487-5 11-98 256-206 545s-199 530-202 535c-6 9-434 16-460 7z"/><path d="m862 2053c-5-10-19-45-30-78-12-33-87-231-167-440-81-209-148-384-149-390-2-5-6-17-9-25-6-13-335-878-403-1057l-23-63h403 403l47 178c26 97 53 197 60 222 8 25 28 101 46 170s38 128 44 132 36 7 66 7c30-1 92-1 136 0l82 1-25 68c-48 129-105 288-132 367-16 44-85 235-154 425-68 190-137 380-152 423-15 42-29 77-31 77s-7-8-12-17z"/></g></svg>